# xmcd CD database file
#
# Track frame offsets:
#	150
#	16497
#	26322
#	41322
#	53397
#	68550
#	81972
#	92397
#	101325
#	117822
#	125622
#	143247
#	153487
#	176397
#	183597
#	196360
#	202200
#	213372
#
# Disc length: 3009 seconds
#
# Revision: 0
# Processed by: cddbd v1.4PL0 Copyright (c) Steve Scherf et al.
# Submitted via: Feurio! 1.63 - http://www.feurio.com
#
DISCID=e80bbf12
DTITLE=Krüger Brothers - Behind the Barn
DYEAR=1900
DGENRE=Country
TTITLE0=Lonesome Road Blues
TTITLE1=Mountain Bear
TTITLE2=Shady Grove
TTITLE3=Nashville Blues
TTITLE4=Columbus Stockade
TTITLE5=Fun On The Wabash
TTITLE6=Nine Pound Hommer
TTITLE7=Run Rabbit, Run
TTITLE8=What Does The Deep Sea Say
TTITLE9=Dixie Hoedown
TTITLE10=Sixteen Tons
TTITLE11=Frosty Morn
TTITLE12=Paradiese
TTITLE13=Pick Along
TTITLE14=Stagolee
TTITLE15=Double Time
TTITLE16=Old And In The Way
TTITLE17=Good Night Hombre
EXTD=
EXTT0=
EXTT1=
EXTT2=
EXTT3=
EXTT4=
EXTT5=
EXTT6=
EXTT7=
EXTT8=
EXTT9=
EXTT10=
EXTT11=
EXTT12=
EXTT13=
EXTT14=
EXTT15=
EXTT16=
EXTT17=
PLAYORDER=
